STARTFONT 2.1
COMMENT Created by fdbbdf
FONT times14b
SIZE 14 78 78
FONTBOUNDINGBOX 18 16 -1 -5
STARTPROPERTIES 4
Ownership "  Copyright (c) 1984 Adobe Systems, Inc.  allchars 75orig/TB16.bits  WIDTHERR -208 -108  GUIDELINES -4 0 8 12 DONE  TOTAL BITMAP BYTES 2992  "
FONT_ASCENT 11
FONT_DESCENT 5
DEFAULT_CHAR 32
ENDPROPERTIES
CHARS 95
STARTCHAR sp
ENCODING -1 32
SWIDTH 0 0
DWIDTH 4 0
BBX 1 1 0 -1
BITMAP
0000
ENDCHAR
STARTCHAR !
ENCODING -1 33
SWIDTH 0 0
DWIDTH 5 0
BBX 3 11 1 -1
BITMAP
6000
6000
6000
6000
6000
6000
6000
6000
0000
6000
6000
ENDCHAR
STARTCHAR "
ENCODING -1 34
SWIDTH 0 0
DWIDTH 7 0
BBX 5 5 1 6
BITMAP
d800
d800
d800
4800
4800
ENDCHAR
STARTCHAR #
ENCODING -1 35
SWIDTH 0 0
DWIDTH 11 0
BBX 9 12 1 -1
BITMAP
1b00
1b00
1b00
7f80
7f80
3600
3600
ff00
ff00
6c00
6c00
6c00
ENDCHAR
STARTCHAR $
ENCODING -1 36
SWIDTH 0 0
DWIDTH 9 0
BBX 7 14 1 -3
BITMAP
1000
7c00
d600
d600
f000
f800
7c00
1e00
9e00
9600
d600
7c00
1000
1000
ENDCHAR
STARTCHAR %
ENCODING -1 37
SWIDTH 0 0
DWIDTH 14 0
BBX 12 12 1 -1
BITMAP
3880
6f80
c500
cf00
ca00
fee0
65b0
0f10
0b10
1b30
13e0
31c0
ENDCHAR
STARTCHAR &
ENCODING -1 38
SWIDTH 0 0
DWIDTH 13 0
BBX 11 11 1 -1
BITMAP
3c00
6600
6600
7600
3ce0
7c40
eec0
c780
c300
e7e0
7cc0
ENDCHAR
STARTCHAR '
ENCODING -1 39
SWIDTH 0 0
DWIDTH 5 0
BBX 3 4 1 6
BITMAP
e000
e000
6000
c000
ENDCHAR
STARTCHAR (
ENCODING -1 40
SWIDTH 0 0
DWIDTH 6 0
BBX 4 15 1 -4
BITMAP
1000
2000
6000
4000
c000
c000
c000
c000
c000
c000
c000
4000
6000
2000
1000
ENDCHAR
STARTCHAR )
ENCODING -1 41
SWIDTH 0 0
DWIDTH 6 0
BBX 4 15 1 -4
BITMAP
8000
4000
6000
2000
3000
3000
3000
3000
3000
3000
3000
2000
6000
4000
8000
ENDCHAR
STARTCHAR *
ENCODING -1 42
SWIDTH 0 0
DWIDTH 8 0
BBX 6 7 1 4
BITMAP
3000
b400
fc00
7800
fc00
b400
3000
ENDCHAR
STARTCHAR +
ENCODING -1 43
SWIDTH 0 0
DWIDTH 10 0
BBX 8 8 1 0
BITMAP
1800
1800
1800
ff00
ff00
1800
1800
1800
ENDCHAR
STARTCHAR ,
ENCODING -1 44
SWIDTH 0 0
DWIDTH 5 0
BBX 3 4 1 -3
BITMAP
e000
e000
6000
c000
ENDCHAR
STARTCHAR -
ENCODING -1 45
SWIDTH 0 0
DWIDTH 7 0
BBX 5 2 1 3
BITMAP
f800
f800
ENDCHAR
STARTCHAR .
ENCODING -1 46
SWIDTH 0 0
DWIDTH 5 0
BBX 3 3 1 -1
BITMAP
e000
e000
e000
ENDCHAR
STARTCHAR /
ENCODING -1 47
SWIDTH 0 0
DWIDTH 7 0
BBX 5 11 1 -1
BITMAP
1800
1800
1800
3000
3000
6000
6000
6000
c000
c000
c000
ENDCHAR
STARTCHAR 0
ENCODING -1 48
SWIDTH 0 0
DWIDTH 11 0
BBX 9 11 1 -1
BITMAP
3e00
7700
6300
e380
e380
e380
e380
e380
6300
7700
3e00
ENDCHAR
STARTCHAR 1
ENCODING -1 49
SWIDTH 0 0
DWIDTH 7 0
BBX 5 11 1 -1
BITMAP
7000
7000
f000
7000
7000
7000
7000
7000
7000
7000
f800
ENDCHAR
STARTCHAR 2
ENCODING -1 50
SWIDTH 0 0
DWIDTH 10 0
BBX 8 11 1 -1
BITMAP
3c00
6e00
4700
0700
0700
0e00
1c00
3800
6100
ff00
ff00
ENDCHAR
STARTCHAR 3
ENCODING -1 51
SWIDTH 0 0
DWIDTH 10 0
BBX 8 11 1 -1
BITMAP
3e00
6f00
4700
0700
0e00
1e00
0f00
0700
c700
ee00
7c00
ENDCHAR
STARTCHAR 4
ENCODING -1 52
SWIDTH 0 0
DWIDTH 11 0
BBX 9 11 1 -1
BITMAP
0700
0f00
0f00
1f00
3700
3700
6700
ff80
ff80
0700
0700
ENDCHAR
STARTCHAR 5
ENCODING -1 53
SWIDTH 0 0
DWIDTH 10 0
BBX 8 11 1 -1
BITMAP
7f00
7e00
6000
fc00
fe00
0f00
0700
0700
c700
ee00
7c00
ENDCHAR
STARTCHAR 6
ENCODING -1 54
SWIDTH 0 0
DWIDTH 11 0
BBX 9 11 1 -1
BITMAP
1f00
3800
7000
7e00
f700
e380
e380
e380
e380
7700
3e00
ENDCHAR
STARTCHAR 7
ENCODING -1 55
SWIDTH 0 0
DWIDTH 10 0
BBX 8 11 1 -1
BITMAP
7f00
ff00
8e00
0e00
1c00
1c00
3800
3800
7000
7000
e000
ENDCHAR
STARTCHAR 8
ENCODING -1 56
SWIDTH 0 0
DWIDTH 11 0
BBX 9 11 1 -1
BITMAP
3e00
7700
e380
f380
7f00
3e00
7700
e380
e380
7700
3e00
ENDCHAR
STARTCHAR 9
ENCODING -1 57
SWIDTH 0 0
DWIDTH 11 0
BBX 9 11 1 -1
BITMAP
3e00
7700
e380
e380
e380
e380
7780
3f00
0700
0e00
7c00
ENDCHAR
STARTCHAR :
ENCODING -1 58
SWIDTH 0 0
DWIDTH 5 0
BBX 3 8 1 -1
BITMAP
e000
e000
e000
0000
0000
e000
e000
e000
ENDCHAR
STARTCHAR ;
ENCODING -1 59
SWIDTH 0 0
DWIDTH 5 0
BBX 3 10 1 -3
BITMAP
e000
e000
e000
0000
0000
0000
e000
e000
6000
c000
ENDCHAR
STARTCHAR <
ENCODING -1 60
SWIDTH 0 0
DWIDTH 12 0
BBX 10 8 1 -1
BITMAP
01c0
0fc0
3e00
f000
f000
3e00
0fc0
01c0
ENDCHAR
STARTCHAR =
ENCODING -1 61
SWIDTH 0 0
DWIDTH 9 0
BBX 7 5 1 1
BITMAP
fe00
fe00
0000
fe00
fe00
ENDCHAR
STARTCHAR >
ENCODING -1 62
SWIDTH 0 0
DWIDTH 12 0
BBX 10 8 1 -1
BITMAP
e000
fc00
1f00
03c0
03c0
1f00
fc00
e000
ENDCHAR
STARTCHAR ?
ENCODING -1 63
SWIDTH 0 0
DWIDTH 8 0
BBX 7 11 1 -1
BITMAP
7c00
ee00
ce00
ce00
1c00
1800
3000
3000
0000
3000
3000
ENDCHAR
STARTCHAR @
ENCODING -1 64
SWIDTH 0 0
DWIDTH 15 0
BBX 13 13 1 -3
BITMAP
0f80
3ce0
7030
66d8
ed98
d998
d998
d998
dbb0
cee0
6000
3820
1fc0
ENDCHAR
STARTCHAR A
ENCODING -1 65
SWIDTH 0 0
DWIDTH 12 0
BBX 11 11 1 -1
BITMAP
0400
0e00
0e00
1f00
1700
3300
2380
7f80
41c0
c1c0
e3e0
ENDCHAR
STARTCHAR B
ENCODING -1 66
SWIDTH 0 0
DWIDTH 11 0
BBX 10 11 1 -1
BITMAP
ff00
7380
71c0
71c0
7380
7f00
7380
71c0
71c0
73c0
ff80
ENDCHAR
STARTCHAR C
ENCODING -1 67
SWIDTH 0 0
DWIDTH 11 0
BBX 10 11 1 -1
BITMAP
1fc0
7cc0
7040
f000
e000
e000
e000
f000
7040
7cc0
1f80
ENDCHAR
STARTCHAR D
ENCODING -1 68
SWIDTH 0 0
DWIDTH 12 0
BBX 11 11 1 -1
BITMAP
ff00
73c0
71c0
70e0
70e0
70e0
70e0
70e0
71c0
73c0
ff00
ENDCHAR
STARTCHAR E
ENCODING -1 69
SWIDTH 0 0
DWIDTH 11 0
BBX 10 11 1 -1
BITMAP
ffc0
70c0
7040
7000
7100
7f00
7100
7000
7040
70c0
ffc0
ENDCHAR
STARTCHAR F
ENCODING -1 70
SWIDTH 0 0
DWIDTH 11 0
BBX 10 11 1 -1
BITMAP
ffc0
70c0
7040
7000
7100
7f00
7100
7000
7000
7000
fc00
ENDCHAR
STARTCHAR G
ENCODING -1 71
SWIDTH 0 0
DWIDTH 12 0
BBX 11 11 1 -1
BITMAP
1fe0
7ce0
7060
f000
e000
e3e0
e0e0
f0e0
70e0
7ce0
1f80
ENDCHAR
STARTCHAR H
ENCODING -1 72
SWIDTH 0 0
DWIDTH 14 0
BBX 13 11 1 -1
BITMAP
f8f8
7070
7070
7070
7070
7ff0
7070
7070
7070
7070
f8f8
ENDCHAR
STARTCHAR I
ENCODING -1 73
SWIDTH 0 0
DWIDTH 6 0
BBX 5 11 1 -1
BITMAP
f800
7000
7000
7000
7000
7000
7000
7000
7000
7000
f800
ENDCHAR
STARTCHAR J
ENCODING -1 74
SWIDTH 0 0
DWIDTH 9 0
BBX 8 13 1 -3
BITMAP
1f00
0e00
0e00
0e00
0e00
0e00
0e00
0e00
0e00
ee00
ee00
ec00
7800
ENDCHAR
STARTCHAR K
ENCODING -1 75
SWIDTH 0 0
DWIDTH 13 0
BBX 12 11 1 -1
BITMAP
f9f0
70e0
71c0
7380
7700
7e00
7f00
7780
73c0
71e0
fbf0
ENDCHAR
STARTCHAR L
ENCODING -1 76
SWIDTH 0 0
DWIDTH 11 0
BBX 10 11 1 -1
BITMAP
f800
7000
7000
7000
7000
7000
7000
7000
7040
70c0
ffc0
ENDCHAR
STARTCHAR M
ENCODING -1 77
SWIDTH 0 0
DWIDTH 16 0
BBX 15 11 1 -1
BITMAP
f83e
783c
7c7c
7c5c
6edc
6e9c
6e9c
679c
671c
671c
f23e
ENDCHAR
STARTCHAR N
ENCODING -1 78
SWIDTH 0 0
DWIDTH 13 0
BBX 12 11 1 -1
BITMAP
e0f0
7060
7860
7c60
7e60
6f60
67e0
63e0
61e0
60e0
f060
ENDCHAR
STARTCHAR O
ENCODING -1 79
SWIDTH 0 0
DWIDTH 13 0
BBX 12 11 1 -1
BITMAP
1f80
79e0
70e0
f0f0
e070
e070
e070
f0f0
70e0
79e0
1f80
ENDCHAR
STARTCHAR P
ENCODING -1 80
SWIDTH 0 0
DWIDTH 12 0
BBX 11 11 1 -1
BITMAP
ffc0
71e0
70e0
70e0
71e0
7fc0
7000
7000
7000
7000
f800
ENDCHAR
STARTCHAR Q
ENCODING -1 81
SWIDTH 0 0
DWIDTH 13 0
BBX 12 14 1 -4
BITMAP
1f80
79e0
70e0
f0f0
e070
e070
e070
f0f0
70e0
79e0
1f80
0700
0380
01e0
ENDCHAR
STARTCHAR R
ENCODING -1 82
SWIDTH 0 0
DWIDTH 14 0
BBX 13 11 1 -1
BITMAP
ffc0
71e0
70e0
70e0
71e0
7fc0
7780
73c0
71e0
70f0
f9f8
ENDCHAR
STARTCHAR S
ENCODING -1 83
SWIDTH 0 0
DWIDTH 10 0
BBX 9 11 1 -1
BITMAP
7d00
f300
e100
f000
7c00
3f00
0f80
8780
c380
e780
bf00
ENDCHAR
STARTCHAR T
ENCODING -1 84
SWIDTH 0 0
DWIDTH 12 0
BBX 11 11 1 -1
BITMAP
ffe0
ce60
8e20
0e00
0e00
0e00
0e00
0e00
0e00
0e00
1f00
ENDCHAR
STARTCHAR U
ENCODING -1 85
SWIDTH 0 0
DWIDTH 12 0
BBX 11 11 1 -1
BITMAP
f9e0
70c0
70c0
70c0
70c0
70c0
70c0
70c0
70c0
3980
1f00
ENDCHAR
STARTCHAR V
ENCODING -1 86
SWIDTH 0 0
DWIDTH 12 0
BBX 11 11 1 -1
BITMAP
f8e0
7040
7040
3880
3880
1d00
1d00
0e00
0e00
0400
0400
ENDCHAR
STARTCHAR W
ENCODING -1 87
SWIDTH 0 0
DWIDTH 17 0
BBX 16 11 1 -1
BITMAP
f9f7
70c2
78e2
39e4
3964
1d74
1f78
1e38
0e38
0c30
0410
ENDCHAR
STARTCHAR X
ENCODING -1 88
SWIDTH 0 0
DWIDTH 12 0
BBX 11 11 1 -1
BITMAP
f9e0
70c0
3980
3b00
1e00
0e00
0f00
1b80
3380
61c0
f3e0
ENDCHAR
STARTCHAR Y
ENCODING -1 89
SWIDTH 0 0
DWIDTH 12 0
BBX 11 11 1 -1
BITMAP
f8e0
7040
3880
3880
1d00
1f00
0e00
0e00
0e00
0e00
1f00
ENDCHAR
STARTCHAR Z
ENCODING -1 90
SWIDTH 0 0
DWIDTH 11 0
BBX 10 11 1 -1
BITMAP
ffc0
c3c0
8380
0700
0e00
1e00
1c00
3840
7040
f0c0
ffc0
ENDCHAR
STARTCHAR [
ENCODING -1 91
SWIDTH 0 0
DWIDTH 6 0
BBX 4 14 1 -4
BITMAP
f000
e000
e000
e000
e000
e000
e000
e000
e000
e000
e000
e000
e000
f000
ENDCHAR
STARTCHAR \
ENCODING -1 92
SWIDTH 0 0
DWIDTH 6 0
BBX 5 11 1 -1
BITMAP
c000
c000
c000
6000
6000
6000
3000
3000
1800
1800
1800
ENDCHAR
STARTCHAR ]
ENCODING -1 93
SWIDTH 0 0
DWIDTH 6 0
BBX 4 14 1 -4
BITMAP
f000
7000
7000
7000
7000
7000
7000
7000
7000
7000
7000
7000
7000
f000
ENDCHAR
STARTCHAR ^
ENCODING -1 94
SWIDTH 0 0
DWIDTH 8 0
BBX 6 6 1 4
BITMAP
3000
3000
7800
7800
cc00
cc00
ENDCHAR
STARTCHAR _
ENCODING -1 95
SWIDTH 0 0
DWIDTH 8 0
BBX 8 3 0 -5
BITMAP
0000
ff00
ff00
ENDCHAR
STARTCHAR `
ENCODING -1 96
SWIDTH 0 0
DWIDTH 6 0
BBX 3 4 1 6
BITMAP
6000
c000
e000
e000
ENDCHAR
STARTCHAR a
ENCODING -1 97
SWIDTH 0 0
DWIDTH 9 0
BBX 9 8 1 -1
BITMAP
7e00
e700
0700
7f00
e700
e700
ef00
7b80
ENDCHAR
STARTCHAR b
ENCODING -1 98
SWIDTH 0 0
DWIDTH 11 0
BBX 10 11 1 -1
BITMAP
f000
7000
7000
7f00
7b80
71c0
71c0
71c0
71c0
7b80
6f00
ENDCHAR
STARTCHAR c
ENCODING -1 99
SWIDTH 0 0
DWIDTH 9 0
BBX 8 8 1 -1
BITMAP
3e00
6700
e700
e000
e000
e700
6700
3e00
ENDCHAR
STARTCHAR d
ENCODING -1 100
SWIDTH 0 0
DWIDTH 10 0
BBX 9 11 1 -1
BITMAP
0780
0380
0380
3f80
7780
e380
e380
e380
e380
7780
3d80
ENDCHAR
STARTCHAR e
ENCODING -1 101
SWIDTH 0 0
DWIDTH 9 0
BBX 8 8 1 -1
BITMAP
3e00
7700
e700
ff00
e000
e300
7700
3e00
ENDCHAR
STARTCHAR f
ENCODING -1 102
SWIDTH 0 0
DWIDTH 8 0
BBX 7 11 1 -1
BITMAP
3c00
7600
7000
fc00
7000
7000
7000
7000
7000
7000
f800
ENDCHAR
STARTCHAR g
ENCODING -1 103
SWIDTH 0 0
DWIDTH 10 0
BBX 9 12 1 -5
BITMAP
3d80
6700
e700
e700
e600
7c00
6000
ff00
ff80
c380
e380
7f00
ENDCHAR
STARTCHAR h
ENCODING -1 104
SWIDTH 0 0
DWIDTH 11 0
BBX 10 11 1 -1
BITMAP
f000
7000
7000
7700
7f80
7380
7380
7380
7380
7380
fbc0
ENDCHAR
STARTCHAR i
ENCODING -1 105
SWIDTH 0 0
DWIDTH 6 0
BBX 5 12 1 -1
BITMAP
7000
7000
7000
0000
f000
7000
7000
7000
7000
7000
7000
f800
ENDCHAR
STARTCHAR j
ENCODING -1 106
SWIDTH 0 0
DWIDTH 5 0
BBX 6 16 -1 -5
BITMAP
1c00
1c00
1c00
0000
3c00
1c00
1c00
1c00
1c00
1c00
1c00
1c00
1c00
dc00
d800
7000
ENDCHAR
STARTCHAR k
ENCODING -1 107
SWIDTH 0 0
DWIDTH 11 0
BBX 10 11 1 -1
BITMAP
f000
7000
7000
73c0
7300
7600
7c00
7e00
7700
7380
f7c0
ENDCHAR
STARTCHAR l
ENCODING -1 108
SWIDTH 0 0
DWIDTH 6 0
BBX 5 11 1 -1
BITMAP
f000
7000
7000
7000
7000
7000
7000
7000
7000
7000
f800
ENDCHAR
STARTCHAR m
ENCODING -1 109
SWIDTH 0 0
DWIDTH 16 0
BBX 15 8 1 -1
BITMAP
f738
7ffc
739c
739c
739c
739c
739c
fbde
ENDCHAR
STARTCHAR n
ENCODING -1 110
SWIDTH 0 0
DWIDTH 11 0
BBX 10 8 1 -1
BITMAP
e700
7f80
7380
7380
7380
7380
7380
f3c0
ENDCHAR
STARTCHAR o
ENCODING -1 111
SWIDTH 0 0
DWIDTH 9 0
BBX 8 8 1 -1
BITMAP
3c00
6600
e700
e700
e700
e700
6600
3c00
ENDCHAR
STARTCHAR p
ENCODING -1 112
SWIDTH 0 0
DWIDTH 11 0
BBX 10 12 1 -5
BITMAP
ef00
7b80
71c0
71c0
71c0
71c0
7b80
7700
7000
7000
7000
f800
ENDCHAR
STARTCHAR q
ENCODING -1 113
SWIDTH 0 0
DWIDTH 11 0
BBX 10 12 1 -5
BITMAP
3dc0
7780
e380
e380
e380
e380
7780
3b80
0380
0380
0380
07c0
ENDCHAR
STARTCHAR r
ENCODING -1 114
SWIDTH 0 0
DWIDTH 8 0
BBX 7 8 1 -1
BITMAP
f600
7e00
7000
7000
7000
7000
7000
f800
ENDCHAR
STARTCHAR s
ENCODING -1 115
SWIDTH 0 0
DWIDTH 8 0
BBX 7 8 1 -1
BITMAP
7a00
e600
e200
7800
3c00
8e00
ce00
bc00
ENDCHAR
STARTCHAR t
ENCODING -1 116
SWIDTH 0 0
DWIDTH 7 0
BBX 6 11 1 -1
BITMAP
1000
3000
7000
fc00
7000
7000
7000
7000
7000
7c00
3800
ENDCHAR
STARTCHAR u
ENCODING -1 117
SWIDTH 0 0
DWIDTH 11 0
BBX 10 8 1 -1
BITMAP
f780
7380
7380
7380
7380
7380
7f80
3bc0
ENDCHAR
STARTCHAR v
ENCODING -1 118
SWIDTH 0 0
DWIDTH 10 0
BBX 9 8 1 -1
BITMAP
fb80
7100
7b00
3a00
3e00
1e00
1c00
0c00
ENDCHAR
STARTCHAR w
ENCODING -1 119
SWIDTH 0 0
DWIDTH 14 0
BBX 13 8 1 -1
BITMAP
f738
7390
7bb0
3ba0
3fe0
3de0
18c0
18c0
ENDCHAR
STARTCHAR x
ENCODING -1 120
SWIDTH 0 0
DWIDTH 10 0
BBX 9 8 1 -1
BITMAP
fb80
7300
3e00
1c00
1c00
3e00
6700
ef80
ENDCHAR
STARTCHAR y
ENCODING -1 121
SWIDTH 0 0
DWIDTH 10 0
BBX 9 11 1 -4
BITMAP
fb80
7100
7b00
3a00
3e00
1c00
1c00
0800
1800
7000
6000
ENDCHAR
STARTCHAR z
ENCODING -1 122
SWIDTH 0 0
DWIDTH 9 0
BBX 8 8 1 -1
BITMAP
ff00
cf00
9e00
3c00
7800
f100
e300
ff00
ENDCHAR
STARTCHAR {
ENCODING -1 123
SWIDTH 0 0
DWIDTH 8 0
BBX 6 14 1 -4
BITMAP
3c00
7000
7000
7000
7000
7000
e000
6000
7000
7000
7000
7000
7000
3c00
ENDCHAR
STARTCHAR |
ENCODING -1 124
SWIDTH 0 0
DWIDTH 4 0
BBX 2 15 1 -4
BITMAP
c000
c000
c000
c000
c000
c000
c000
c000
c000
c000
c000
c000
c000
c000
c000
ENDCHAR
STARTCHAR }
ENCODING -1 125
SWIDTH 0 0
DWIDTH 8 0
BBX 6 14 1 -4
BITMAP
f000
3800
3800
3800
3800
3800
1c00
3800
3800
3800
3800
3800
3800
f000
ENDCHAR
STARTCHAR ~
ENCODING -1 126
SWIDTH 0 0
DWIDTH 9 0
BBX 8 4 1 3
BITMAP
6000
f900
9f00
0600
ENDCHAR
ENDFONT
